<svg width="80" height="80" viewBox="0 0 80 80" fill="none" xmlns="http://www.w3.org/2000/svg">
<path d="M20 46.6667H60V40H20V46.6667ZM20 36.6667H60V30H20V36.6667ZM20 26.6667H60V20H20V26.6667ZM13.3333 60C11.5 60 9.93052 59.3472 8.62496 58.0417C7.3194 56.7361 6.66663 55.1667 6.66663 53.3334V13.3334C6.66663 11.5 7.3194 9.93058 8.62496 8.62502C9.93052 7.31946 11.5 6.66669 13.3333 6.66669H66.6666C68.5 6.66669 70.0694 7.31946 71.375 8.62502C72.6805 9.93058 73.3333 11.5 73.3333 13.3334V73.3334L60 60H13.3333Z" fill="#437223"/>
</svg>
