<svg width="67" height="52" viewBox="0 0 67 52" fill="none" xmlns="http://www.w3.org/2000/svg">
<path d="M32.4921 27.3743C33.7009 27.3972 34.8408 27.6747 35.8569 28.1512L36.466 27.2197L37.2491 25.7367L34.6668 21.2034C34.6668 21.2034 31.5967 21.1866 31.1735 20.6879L31.2744 20.0356C31.2744 20.0356 34.007 19.6372 34.576 19.3207C34.576 19.3207 37.5468 17.9045 37.784 18.972C37.784 18.972 38.0368 19.3036 36.8672 19.4051C36.8672 19.4051 35.2588 19.7431 35.2843 20.6425L35.4039 21.0938L38.3706 26.0854C39.4269 24.4282 40.7679 23.1163 40.7679 23.1163C41.6931 22.3571 41.1837 21.8979 41.1837 21.8979C40.1792 20.2845 39.3177 15.9761 39.3177 15.9761C37.4324 13.0786 39.0566 11.9235 39.3721 11.3159C39.6871 10.7085 39.2174 10.4135 40.4744 10.2733C41.7312 10.1343 40.9157 9.83184 41.9292 8.95244C42.9438 8.07177 42.5959 8.14709 44.1296 7.19437C45.6633 6.2424 45.3368 5.29532 48.0423 4.1609C50.7473 3.02591 52.4969 4.20334 52.4969 4.20334C54.4428 4.19845 53.9575 2.59587 53.9575 2.59587C53.2867 1.56098 53.9891 1.08368 53.9891 1.08368C54.727 -1.11064 57.8462 0.70642 57.8462 0.70642C60.5031 1.85941 60.6154 4.80548 60.6154 4.80548C60.7669 5.78959 58.7978 4.81238 58.7978 4.81238C59.0496 5.22592 58.3506 5.53947 58.3506 5.53947C58.7996 6.81516 57.7287 6.30456 57.7287 6.30456C57.559 6.17916 57.1617 6.53939 57.1617 6.53939C57.2424 6.82747 56.6782 6.93884 56.6782 6.93884C56.802 7.22744 55.9348 7.29339 55.9348 7.29339C55.2794 7.60814 54.9486 6.90624 54.9486 6.90624C54.5212 6.65341 54.7686 7.22997 53.7324 7.12923C53.687 7.12451 53.6436 7.12399 53.6023 7.12601C52.7127 7.18011 52.8772 8.78977 52.8772 8.78977C52.454 10.3763 49.6112 11.8349 49.2167 12.1139C48.8208 12.3924 48.8515 13.0066 49.1844 13.6668C49.5161 14.327 49.7381 14.0453 50.5102 14.3867C51.2802 14.7281 50.5437 14.796 51.3863 15.8742C52.2289 16.953 51.7482 17.2303 51.7482 17.2303C52.0402 17.6861 52.0283 18.2169 52.0283 18.2169C51.7367 19.7651 51.044 17.7486 51.044 17.7486C50.7525 18.2742 50.1267 18.3092 49.653 18.1233C49.5735 18.2619 49.5787 18.4811 49.7679 18.8289L51.6898 22.0128C51.6898 22.0128 52.1715 21.7353 52.5079 22.2327L53.597 23.8881C53.597 23.8881 53.8279 23.2388 54.414 24.1079L54.6588 24.5666C55.8248 24.0419 57.1331 23.7575 58.5112 23.783C63.2473 23.8718 67.0093 27.5732 66.915 32.0484C66.8213 36.5252 62.9069 40.0816 58.1711 39.9925C53.4351 39.9041 49.6728 36.203 49.7673 31.728C49.8222 29.13 51.1632 26.8438 53.2058 25.3975L51.753 23.1587C51.753 23.1587 51.101 23.2686 50.6931 22.1169C50.6931 22.1169 50.3656 21.2523 49.9168 22.0206L48.1214 24.5344C48.0116 25.0408 47.8675 25.4105 47.764 25.6592C47.4459 26.4297 45.9623 29.1 45.7141 30.6083C45.466 32.1157 47.5885 31.9918 47.5885 31.9918C50.3472 32.412 47.1172 33.7818 47.1172 33.7818C44.7816 33.7788 43.7729 34.4968 43.2594 34.2822C43.2484 34.278 43.238 34.2719 43.2285 34.2672C42.8414 34.6189 42.1957 35.0133 41.4336 34.6978C41.4336 34.6978 40.9702 34.7358 40.2765 34.7965C40.2776 34.8745 40.2791 34.9523 40.278 35.031C40.1908 39.1777 36.5638 42.4722 32.1767 42.39C27.7896 42.3082 24.3042 38.88 24.3914 34.7338C24.4785 30.587 28.104 27.2918 32.4921 27.3743ZM51.3449 31.7568C51.2681 35.4089 54.3387 38.4284 58.2021 38.5002C62.0653 38.573 65.2607 35.6711 65.3373 32.0189C65.4141 28.3667 62.3435 25.3478 58.4801 25.2747C57.267 25.252 56.1204 25.5226 55.1163 26.0168C55.1391 26.0926 55.1764 26.1598 55.2354 26.2086C55.2354 26.2086 56.4568 25.6998 56.2773 26.0232C56.2773 26.0232 55.6625 26.4612 55.5716 26.7049L57.1723 29.5912C57.5076 29.4309 57.8869 29.3423 58.2894 29.35C59.5962 29.3749 60.635 30.3958 60.6093 31.632C60.583 32.8677 59.5029 33.8498 58.1954 33.8253C57.3838 33.8103 56.6767 33.4098 56.2625 32.8141C56.2144 33.3713 55.8261 33.0471 55.8261 33.0471L55.3525 30.618C55.2319 29.685 55.7958 30.2393 55.7958 30.2393C55.8323 30.4737 55.972 30.6329 56.0622 30.7148C56.1392 30.546 56.2366 30.3892 56.3508 30.2448L54.0358 26.6748C52.4335 27.8582 51.3882 29.6864 51.3449 31.7568ZM57.6547 32.5082C56.9745 31.9231 56.9899 31.2284 56.9899 31.2284L56.6002 30.6289C56.4239 30.8973 56.318 31.212 56.311 31.5518C56.2896 32.5593 57.1375 33.393 58.2039 33.4133C59.2706 33.4333 60.1525 32.6319 60.1741 31.6244C60.1948 30.6156 59.3469 29.7816 58.2809 29.7616C57.9542 29.7555 57.6457 29.8268 57.3754 29.9567L57.8625 30.8361C57.8625 30.8361 59.2912 30.781 59.2288 31.6794C59.2288 31.6794 58.3335 33.0932 57.6547 32.5082ZM35.3366 30.9057C35.395 30.8919 35.4515 30.88 35.5011 30.8664C35.9367 30.7524 35.931 30.9973 36.4644 30.3114C36.4926 30.2759 36.514 30.2438 36.5328 30.2136C36.3553 30.0722 36.1729 29.9406 35.9807 29.8169L35.3366 30.9057ZM35.7059 33.4871C35.1244 33.2143 34.681 32.9173 34.4704 32.3707L33.9303 33.2822C34.2546 33.6521 34.4469 34.1275 34.4364 34.6451C34.4348 34.6752 34.4301 34.7043 34.4291 34.7346C34.9692 34.5991 35.8516 34.3917 36.8906 34.1989C36.795 33.797 36.4075 33.8153 35.7059 33.4871ZM34.0316 34.6379C34.0399 34.2695 33.9203 33.9271 33.715 33.6459L33.399 34.1789C33.399 34.1789 33.9516 34.6394 33.8603 34.8825C33.8603 34.8825 33.9146 34.8672 34.0139 34.8416C34.0238 34.7744 34.0305 34.7066 34.0316 34.6379ZM31.0874 35.0764C31.0874 35.0764 30.8167 33.5995 32.4655 33.3439L32.7089 32.9724C32.5705 32.9371 32.4262 32.9154 32.2779 32.9127C31.2906 32.8945 30.4735 33.6366 30.4532 34.5705C30.4333 35.5045 31.2191 36.2772 32.2069 36.2953C32.6577 36.3039 33.0709 36.1528 33.3901 35.8995C32.5344 36.259 31.2028 36.5673 31.0874 35.0764ZM32.6289 33.7968L32.8844 34.0059L33.2913 33.2342C33.226 33.1902 33.1581 33.1502 33.0871 33.1142L32.6289 33.7968ZM33.4742 32.8892L34.3341 31.258L33.305 32.7909C33.3629 32.8218 33.4183 32.8542 33.4742 32.8892ZM37.8111 26.724L36.6969 28.6077C36.8359 28.6939 36.9727 28.7852 37.1053 28.8793C37.2229 28.6914 37.237 28.5684 37.237 28.5684C37.3692 28.0083 37.6089 27.436 37.9031 26.884L37.8111 26.724ZM44.3004 21.7107C44.3165 21.8958 44.3072 22.0862 44.2815 22.2785L44.9873 21.8176C44.8154 21.5173 44.7423 21.269 44.7423 21.269C43.9012 20.1901 44.3004 21.7107 44.3004 21.7107ZM48.9115 17.3139C48.7715 17.0778 48.6807 17.0095 48.6807 17.0095C48.0867 16.4668 48.4795 16.3107 48.2706 15.9392C48.0621 15.5671 46.8407 14.0315 46.8407 14.0315C46.6057 13.6379 46.5043 13.4387 46.4646 13.3395C46.4453 14.4796 45.0265 13.9154 45.0265 13.9154C44.3923 13.2501 44.4173 14.0266 44.4173 14.0266C45.2281 14.6147 46.3727 15.6575 47.594 19.3186C47.6698 19.5477 47.7393 19.7694 47.802 19.9851L48.8494 19.3018C48.8494 19.3018 47.3083 17.6916 48.9115 17.3139ZM42.5059 33.0418L43.8714 29.5822C44.1295 28.4045 44.1081 27.378 44.4294 25.8421C44.7883 24.1388 45.5102 22.7622 45.6111 22.5756L43.8114 23.6685C42.845 25.5654 40.8092 27.3276 40.8092 27.3276C40.3673 27.6992 40.0068 28.0339 39.709 28.3366L42.5059 33.0418ZM41.7991 33.7234L39.1082 28.9998C38.7306 29.4639 38.5373 29.8212 38.4464 30.0881C39.3528 31.1181 39.9697 32.3797 40.1896 33.7612C40.7376 33.7239 41.2825 33.7076 41.7991 33.7234ZM32.2063 41.0085C35.6061 41.0717 38.4453 38.6483 38.7823 35.505C38.3795 35.5689 37.9234 35.3413 37.5604 35.0542C36.1624 35.1996 34.7875 35.3672 34.2118 35.5128C33.8482 36.2154 33.0809 36.693 32.199 36.6767C30.9871 36.6542 30.0259 35.7079 30.0489 34.5626C30.0729 33.4185 31.0743 32.5085 32.2863 32.5312C32.5099 32.5356 32.7256 32.5712 32.9293 32.6346L35.0837 29.334C34.287 28.9802 33.4 28.7733 32.4623 28.756C28.8834 28.6889 25.9235 31.3772 25.8529 34.7613C25.7819 38.1439 28.6263 40.9416 32.2063 41.0085Z" fill="white"/>
<path d="M21.9094 34.7952C21.9094 34.7952 20.7455 37.3838 23.5126 39.8568C18.7034 40.8671 8.81756 44.9081 1.14441e-05 51.9797C4.27483 45.9187 12.2905 39.5934 21.9094 34.7952Z" fill="white"/>
</svg>
